<?xml version="1.0" encoding="UTF-8" standalone="no"?>
<!-- Created with Inkscape (http://www.inkscape.org/) -->

<svg
   version="1.1"
   id="svg1"
   width="300"
   height="300"
   viewBox="0 0 300 300"
   sodipodi:docname="FreeAIWiki.svg"
   xmlns:inkscape="http://www.inkscape.org/namespaces/inkscape"
   xmlns:sodipodi="http://sodipodi.sourceforge.net/DTD/sodipodi-0.dtd"
   xmlns:xlink="http://www.w3.org/1999/xlink"
   xmlns="http://www.w3.org/2000/svg"
   xmlns:svg="http://www.w3.org/2000/svg">
  <defs
     id="defs1">
    <linearGradient
       id="linearGradient1"
       inkscape:collect="always">
      <stop
         style="stop-color:#ff00cc;stop-opacity:1;"
         offset="0"
         id="stop1" />
      <stop
         style="stop-color:#007bff;stop-opacity:1;"
         offset="1"
         id="stop2" />
    </linearGradient>
    <radialGradient
       inkscape:collect="always"
       xlink:href="#linearGradient1"
       id="radialGradient2"
       cx="41.511715"
       cy="251.75284"
       fx="41.511715"
       fy="251.75284"
       r="150.39731"
       gradientTransform="matrix(0.98906076,0,0,0.9703907,146.88037,-64.83053)"
       gradientUnits="userSpaceOnUse" />
  </defs>
  <sodipodi:namedview
     id="namedview1"
     pagecolor="#ffffff"
     bordercolor="#000000"
     borderopacity="0.25"
     inkscape:showpageshadow="2"
     inkscape:pageopacity="0.0"
     inkscape:pagecheckerboard="0"
     inkscape:deskcolor="#d1d1d1" />
  <g
     inkscape:groupmode="layer"
     inkscape:label="Image"
     id="g1"
     transform="translate(-37.937443,-29.466192)">
    <path
       id="path1"
       style="fill:url(#radialGradient2);stroke:#000000;stroke-width:0.494531;stroke-dasharray:none;stroke-opacity:1"
       d="m 180.62065,33.583805 c -1.72327,0.244742 -1.78698,0.568044 -2.00323,10.099238 -0.12288,5.415695 -0.0404,10.325208 0.18352,10.908643 0.31185,0.812692 2.30864,1.007378 8.53257,0.83452 7.52173,-0.208908 8.12306,-0.343031 8.12306,-1.808126 0,-1.436046 -0.60374,-1.603447 -6.52741,-1.81199 -6.52781,-0.229818 -6.52743,-0.229272 -6.52743,-9.351647 0,-9.007673 -0.0231,-9.120307 -1.78108,-8.870638 z m 36.79229,3.436599 c -4.02331,-0.01607 -4.58143,0.190587 -5.66585,2.103685 -0.90606,1.598451 -1.01171,2.672663 -0.42305,4.352255 0.51863,1.479742 2.10856,2.938865 4.72315,4.338732 2.16693,1.160195 4.38394,2.509167 4.92791,2.998089 0.54399,0.488912 0.98907,1.206752 0.98907,1.593701 0,0.386942 -0.57802,1.281166 -1.28463,1.987781 -0.9162,0.916206 -1.99514,1.136122 -3.75919,0.764976 -1.36053,-0.286254 -3.65043,-1.068136 -5.09018,-1.73665 -1.90274,-0.883488 -2.85655,-0.978002 -3.48878,-0.345786 -0.63219,0.632208 -0.56399,1.236672 0.24535,2.211864 0.61241,0.737909 2.18109,1.807 3.48682,2.376064 1.30573,0.569067 3.95385,1.04932 5.88415,1.066331 2.54395,0.02244 4.01194,-0.443232 5.33937,-1.690288 1.27485,-1.197663 1.8313,-2.611849 1.8313,-4.651677 0,-1.728757 -0.52547,-3.373512 -1.28268,-4.014195 -0.70589,-0.597274 -2.93129,-2.003994 -4.94531,-3.125587 -2.37821,-1.324421 -3.66261,-2.574104 -3.66261,-3.562165 0,-1.211113 0.47351,-1.46973 2.31618,-1.271097 1.27309,0.137233 3.18918,0.939144 4.25954,1.781082 1.07034,0.841937 2.43296,1.529953 3.02705,1.529953 0.5941,0 1.07986,-0.650444 1.07986,-1.444957 0,-0.79451 -0.90996,-2.298646 -2.02254,-3.343874 -1.63531,-1.536295 -2.87719,-1.903797 -6.48493,-1.918237 z m -62.68752,0.531234 c -0.54016,0.0096 -1.12568,0.0747 -1.80619,0.183518 -1.81584,0.290368 -4.4596,1.410845 -5.87449,2.490038 -1.55531,1.186287 -2.94433,3.204715 -3.51387,5.105639 -0.72266,2.412168 -0.72606,3.863903 -0.0154,6.235719 0.52311,1.745998 2.1388,4.15634 3.71284,5.538354 2.27428,1.996852 3.47337,2.447585 6.51775,2.445607 2.30324,-0.0018 4.70089,-0.593828 6.2647,-1.547339 1.39322,-0.849504 3.08529,-2.612492 3.7592,-3.915676 0.67392,-1.303196 1.22474,-3.579456 1.22474,-5.059278 0,-1.479831 -0.39443,-3.819565 -0.87509,-5.198364 -0.57625,-1.653066 -2.06877,-3.207303 -4.3851,-4.564747 -2.17216,-1.27298 -3.38855,-1.741987 -5.00904,-1.713471 z m -1.02964,4.076012 c 0.7611,-0.0039 1.60622,0.06312 2.35097,0.202835 1.57736,0.295917 3.21802,1.286805 3.9292,2.372199 0.67154,1.024923 1.22087,3.161688 1.22087,4.750197 0,1.976922 -0.58754,3.474393 -1.86029,4.746334 -1.02269,1.022034 -2.92692,2.037353 -4.23249,2.254364 -1.30555,0.217017 -3.11128,0.0817 -4.01226,-0.299425 -0.90098,-0.381114 -2.23621,-1.606238 -2.96718,-2.721847 -0.73097,-1.115602 -1.32906,-3.223839 -1.32906,-4.68645 0,-1.755453 0.60586,-3.203601 1.78109,-4.26146 0.97918,-0.881391 2.45047,-1.841464 3.27046,-2.132663 0.41002,-0.145581 1.08763,-0.22021 1.84869,-0.224084 z m -33.10455,10.016172 c -2.04461,0.0018 -4.51015,0.638064 -6.00778,1.551203 -1.3968,0.85167 -3.24221,2.929557 -4.10306,4.616905 -0.86081,1.687355 -1.53422,4.192299 -1.49516,5.56733 0.0464,1.631405 1.00993,3.5972 2.77399,5.658122 1.48685,1.737037 3.83708,3.486072 5.22155,3.886701 1.38447,0.400638 3.05041,0.75269 3.70318,0.782362 0.65278,0.02969 2.64531,-0.608474 4.42759,-1.417912 1.8814,-0.854428 3.95556,-2.629095 4.94531,-4.230552 0.93763,-1.517109 1.70575,-3.687016 1.70575,-4.823603 0,-1.136588 -0.57055,-3.491937 -1.26724,-5.233137 -0.75446,-1.885553 -2.31222,-3.812132 -3.85192,-4.763717 -1.56698,-0.968438 -3.95054,-1.595679 -6.05221,-1.593702 z m 140.45435,0.521575 c -0.38775,0.07173 -2.22112,4.879341 -4.07407,10.68263 -3.11569,9.758172 -3.26769,10.625627 -2.02448,11.54033 0.73936,0.543983 1.72015,0.981518 2.18096,0.973607 0.46081,-0.0085 3.46128,-1.985271 6.6665,-4.392822 3.20521,-2.407539 6.02098,-4.184505 6.25697,-3.948516 0.23598,0.23599 -0.54156,3.661134 -1.72699,7.611132 -1.69606,5.651409 -1.95539,7.42421 -1.21508,8.316223 0.51743,0.623464 1.38987,1.133944 1.93756,1.133944 0.54767,0 4.97289,-2.879783 9.83458,-6.397986 7.24701,-5.244362 8.67269,-6.598145 7.91054,-7.516476 -0.51128,-0.616066 -1.26203,-1.120421 -1.66709,-1.120421 -0.40507,0 -3.42064,1.985994 -6.70127,4.412138 -3.28065,2.426155 -6.18641,4.189075 -6.45788,3.917609 -0.27146,-0.271469 0.47723,-3.23586 1.66324,-6.5873 1.18601,-3.35145 2.15207,-6.70453 2.14811,-7.450796 -0.004,-0.746265 -0.72785,-1.74124 -1.60722,-2.211865 -0.87936,-0.470624 -2.03619,-0.592237 -2.57116,-0.270446 -0.53499,0.32179 -3.39429,2.337141 -6.35355,4.479751 -2.9593,2.142609 -5.52774,3.748581 -5.70836,3.56796 -0.18062,-0.180623 0.61545,-3.459679 1.76949,-7.286598 1.55675,-5.162377 1.88501,-7.296637 1.2711,-8.269861 -0.45509,-0.721459 -1.14413,-1.253944 -1.5319,-1.182237 z m -139.38223,2.750825 c 1.3701,0.0024 2.17043,0.541949 3.73217,2.103686 1.80684,1.806834 2.41082,3.135561 2.41082,5.30268 0,2.140423 -0.60189,3.491819 -2.31423,5.204158 -1.64818,1.648171 -3.06943,2.305106 -4.9453,2.287204 -1.44783,-0.01385 -3.19973,-0.458924 -3.89444,-0.98906 -0.69469,-0.530147 -1.85151,-2.10374 -2.57117,-3.496485 -0.71964,-1.392744 -1.30973,-3.078155 -1.30973,-3.745681 0,-0.667527 0.98033,-2.300308 2.1771,-3.627844 1.38865,-1.540411 3.23543,-2.581109 5.10563,-2.878321 0.63289,-0.10058 1.15248,-0.161116 1.60915,-0.160337 z M 95.175074,66.373488 c -0.658784,-0.154635 -1.396564,0.324194 -2.774005,1.645857 -1.270283,1.21885 -4.331613,4.048418 -6.801724,6.287878 -3.106657,2.816555 -4.341433,4.461444 -4.004538,5.339382 0.267867,0.698049 1.121295,1.269166 1.895056,1.269166 0.773763,0 1.989668,-0.890154 2.702531,-1.97812 0.712863,-1.087967 1.789509,-1.978123 2.393451,-1.978123 0.603938,0 3.533713,2.82818 6.510027,6.284012 2.976315,3.455834 5.941458,6.211802 6.589228,6.123677 0.6478,-0.08813 1.2993,-0.788654 1.4469,-1.555067 0.16649,-0.864516 -1.85728,-3.66865 -5.331665,-7.388977 -3.080108,-3.298149 -5.600171,-6.285114 -5.600171,-6.637526 0,-0.352411 1.066641,-1.540222 2.372202,-2.638782 1.305559,-1.098549 2.374132,-2.333105 2.374132,-2.7431 0,-0.409993 -0.503305,-1.162349 -1.118488,-1.672902 -0.222362,-0.184545 -0.433341,-0.305832 -0.652936,-0.357375 z m 96.331046,4.64588 c -7.34839,-0.207425 -13.60059,0.07977 -18.55649,0.853838 -4.11094,0.642088 -9.63028,1.717185 -12.26473,2.389586 -2.63445,0.672402 -7.28281,2.105137 -10.32911,3.183539 -3.04632,1.078392 -8.74589,3.514078 -12.66655,5.410858 -3.92067,1.896768 -7.75828,4.142489 -8.52678,4.991666 -0.76849,0.849167 -1.44512,2.84381 -1.50486,4.433387 -0.0993,2.639891 -0.70896,3.370213 -7.03354,8.420528 -3.80822,3.04099 -8.92378,7.73786 -11.36839,10.43924 -2.4446,2.70137 -6.53229,7.96192 -9.08506,11.68907 -2.55278,3.72714 -6.070345,9.61818 -7.815904,13.09152 -1.745559,3.47338 -4.248662,9.52065 -5.561534,13.43733 -1.312872,3.91667 -2.947946,10.09838 -3.633639,13.73674 -0.685695,3.63836 -1.245985,7.77981 -1.245985,9.20483 0,1.95567 -0.534685,2.93943 -2.177094,4.00841 -1.196762,0.77893 -2.608967,1.97648 -3.139108,2.66196 -0.530143,0.68548 -0.975224,3.39104 -0.989061,6.01356 -0.01384,2.62254 0.338316,7.78698 0.782363,11.47466 0.444047,3.68767 1.354372,9.17584 2.022552,12.19713 0.668179,3.02128 2.484439,8.89748 4.037376,13.05676 1.552939,4.15928 3.89746,9.69805 5.208024,12.30917 1.310564,2.61112 4.262686,7.59522 6.560253,11.07671 2.297567,3.48149 6.481507,9.00084 9.299497,12.26473 2.81799,3.26391 7.03281,7.55218 9.36516,9.52938 2.33237,1.9772 6.37736,5.19319 8.98848,7.14557 2.61111,1.95239 6.25193,4.51679 8.09214,5.70064 1.84021,1.18384 4.30714,2.15389 5.48232,2.15389 1.17522,0 3.25627,-0.40414 4.62272,-0.89826 2.17509,-0.78652 3.41349,-0.55175 9.94662,1.89313 4.10429,1.53593 9.77601,3.36967 12.60473,4.07408 2.82872,0.70438 7.27949,1.58793 9.89061,1.9646 2.61111,0.37665 9.37554,0.72716 15.03295,0.77849 5.80918,0.0527 13.38727,-0.41599 17.40901,-1.07598 3.91669,-0.64274 9.43411,-1.83756 12.26282,-2.65618 2.82872,-0.81862 7.93235,-2.6055 11.33941,-3.97169 5.66545,-2.27175 6.33817,-2.38268 7.88932,-1.29622 0.93282,0.65339 2.51985,1.18803 3.52546,1.18803 1.0056,0 3.51788,-0.85642 5.58278,-1.90278 2.0649,-1.04637 6.94817,-4.38569 10.85263,-7.41988 3.90443,-3.0342 9.97845,-8.49709 13.49721,-12.14111 3.51873,-3.644 8.65061,-9.99398 11.40509,-14.10957 2.75448,-4.11558 6.51893,-10.71452 8.36453,-14.66398 1.84558,-3.94945 4.60242,-11.08487 6.1256,-15.85782 1.52318,-4.77296 3.00929,-10.28128 3.30331,-12.23963 0.29404,-1.95834 0.80633,-7.47575 1.13781,-12.2628 0.33255,-4.80253 0.28614,-9.85746 -0.1024,-11.27568 -0.44389,-1.6203 -1.55499,-3.00896 -3.00579,-3.75921 -1.7346,-0.89698 -2.4125,-1.92032 -2.75278,-4.1552 -0.2483,-1.63086 -0.99698,-5.99256 -1.66517,-9.69165 -0.66817,-3.69909 -2.10421,-9.3716 -3.18933,-12.60665 -1.08514,-3.23508 -3.2068,-8.55325 -4.71543,-11.81851 -1.50863,-3.26525 -5.06111,-9.41988 -7.89509,-13.67685 -2.834,-4.25697 -7.95817,-10.68923 -11.3858,-14.2931 -3.42762,-3.60386 -8.53127,-8.33283 -11.34328,-10.508756 -4.3653,-3.377875 -5.17661,-4.399423 -5.54416,-6.98525 -0.23677,-1.665725 -1.08307,-3.752936 -1.88153,-4.638154 -0.79845,-0.885218 -4.58724,-3.185548 -8.41861,-5.111436 -3.83137,-1.925887 -10.06246,-4.537057 -13.84685,-5.803002 -3.78438,-1.265959 -10.26024,-3.053278 -14.39161,-3.971698 -4.96904,-1.104642 -11.26364,-1.775045 -18.59511,-1.981986 z m 107.51979,12.877107 c -1.15636,0.224584 -3.27454,1.881545 -8.19451,6.173903 -4.36711,3.809997 -7.94147,7.344545 -7.94147,7.854533 0,0.509989 0.23725,1.164493 0.52736,1.454613 0.29013,0.29013 0.85279,0.52737 1.24986,0.52737 0.39708,0 3.45379,-2.324706 6.79206,-5.165522 3.33829,-2.840827 6.86957,-5.948135 7.84874,-6.90604 0.97917,-0.957895 1.78108,-1.974037 1.78108,-2.256295 0,-0.282257 -0.52149,-0.944805 -1.15905,-1.473932 -0.23944,-0.198704 -0.51861,-0.283492 -0.90407,-0.20863 z m -105.4586,2.571172 c 3.21571,0.0069 9.22963,0.723247 13.3639,1.59177 4.13428,0.868513 9.83011,2.337646 12.65882,3.264673 2.82872,0.927026 8.33245,3.277386 12.22996,5.223477 6.57567,3.283357 7.39592,3.502583 11.37615,3.034787 4.12984,-0.48538 4.44504,-0.38574 8.46304,2.714126 2.29525,1.77076 7.1503,6.32075 10.78887,10.1089 3.63856,3.78815 8.63858,9.91401 11.11341,13.61311 2.47484,3.69907 6.09291,10.10664 8.03999,14.24092 1.94706,4.13426 4.45309,10.68684 5.56733,14.55967 1.11422,3.87285 2.43041,9.94259 2.92661,13.48947 0.90216,6.44891 0.90288,6.44939 -1.56858,8.92086 -2.14303,2.14302 -2.47284,3.03104 -2.48618,6.68583 -0.009,2.3182 -0.52037,8.01093 -1.1378,12.64916 -0.67048,5.03646 -2.33857,12.02929 -4.13978,17.36266 -1.65877,4.91166 -3.3723,9.027 -3.80749,9.14495 -0.43519,0.11793 -6.84469,-2.84483 -14.24286,-6.58345 -7.39817,-3.73861 -15.80634,-8.16501 -18.6859,-9.8365 -2.87959,-1.67152 -6.39682,-4.36064 -7.8159,-5.97688 -1.41908,-1.61622 -3.57613,-5.04446 -4.79269,-7.61692 -1.50064,-3.17309 -2.3847,-6.62564 -2.75278,-10.73672 -0.29837,-3.3329 -1.24413,-8.19514 -2.09981,-10.80626 -0.85569,-2.61113 -2.48015,-6.35016 -3.61047,-8.3085 -1.13028,-1.95834 -4.03421,-5.63013 -6.45206,-8.15781 -2.89082,-3.02211 -6.29707,-5.53206 -9.95049,-7.33298 -3.05571,-1.50624 -7.87131,-3.2166 -10.70001,-3.79976 -5.06597,-1.04437 -5.14153,-1.09716 -5.02452,-3.56409 0.0654,-1.37747 1.06885,-3.75042 2.22925,-5.27178 1.16041,-1.52136 2.98177,-3.33552 4.04705,-4.0335 1.06525,-0.69799 3.44396,-1.43474 5.28722,-1.63621 2.60702,-0.28494 5.63661,0.45111 13.63822,3.31298 5.65742,2.02344 12.49522,4.37849 15.19521,5.23312 2.69998,0.85465 6.0073,2.4762 7.34842,3.60466 1.34111,1.12847 3.02507,3.16747 3.74375,4.52998 0.93464,1.77197 1.39988,5.17953 1.6304,11.97112 0.3124,9.20414 0.25851,9.5802 -1.71927,12.26474 -1.12214,1.52315 -2.75753,3.83871 -3.63364,5.14427 -0.87609,1.30556 -1.81693,3.56431 -2.09209,5.02063 -0.27517,1.45635 -0.0583,4.12682 0.48102,5.93438 0.57213,1.91754 2.2601,4.50668 4.0528,6.21641 1.81283,1.72888 4.22866,3.14775 5.89189,3.45978 1.55047,0.2909 4.05838,0.32725 5.57504,0.0811 1.51668,-0.24612 4.03574,-1.23577 5.59633,-2.20028 1.81707,-1.12302 3.41381,-3.0576 4.4411,-5.37995 0.88229,-1.99453 1.54956,-5.00366 1.4836,-6.68581 -0.0659,-1.68214 -0.90052,-4.44756 -1.85449,-6.14494 -0.95398,-1.69737 -2.551,-3.62196 -3.55057,-4.27691 -0.99959,-0.65495 -2.37592,-2.04211 -3.05799,-3.08309 -0.80622,-1.23047 -1.37628,-4.47929 -1.6304,-9.28596 -0.21499,-4.06641 -0.74428,-9.20313 -1.17451,-11.41476 -0.43024,-2.21163 -1.51644,-5.41542 -2.4147,-7.12047 -0.89826,-1.70504 -2.75545,-4.28073 -4.12624,-5.72379 -1.37078,-1.44309 -3.57901,-3.29881 -4.90666,-4.12239 -1.32766,-0.82357 -8.6254,-3.68219 -16.21905,-6.35356 -7.59367,-2.67138 -15.57757,-5.80166 -17.74127,-6.95626 -2.16373,-1.1546 -5.9295,-4.05855 -8.3684,-6.45209 -2.87478,-2.82131 -5.46396,-6.43939 -7.36001,-10.28661 -1.64841,-3.344815 -3.13637,-7.746269 -3.41147,-10.08764 -0.48808,-4.154023 -0.48807,-4.154057 5.3587,-4.141692 z m -16.64983,0.25306 c 1.4086,-0.02529 1.49352,0.677587 1.8313,3.494552 0.24771,2.065779 0.69456,9.988351 0.99485,17.604121 0.30032,7.61576 0.47563,15.62715 0.3883,17.80309 -0.0873,2.17595 -0.68386,5.80156 -1.32519,8.05738 -0.64134,2.25581 -2.3243,5.61991 -3.73989,7.4759 -1.41561,1.85599 -5.45836,5.72206 -8.98463,8.59054 -3.52624,2.86847 -7.54972,6.44719 -8.94017,7.95304 -1.39045,1.50586 -3.74439,5.24988 -5.2312,8.32009 -1.68756,3.48468 -3.01172,7.76145 -3.52547,11.38387 -0.45264,3.19151 -0.60944,7.62371 -0.3477,9.8481 0.26171,2.22439 1.19697,6.30136 2.07856,9.05994 1.00928,3.1582 1.32586,5.29236 0.85384,5.76438 -0.41231,0.41231 -2.0346,0.95836 -3.60467,1.21314 -1.57006,0.25477 -4.10993,0.22802 -5.6446,-0.0599 -1.53467,-0.28789 -3.88339,-1.44263 -5.21768,-2.56536 -1.33428,-1.12273 -2.96866,-3.3326 -3.63364,-4.91246 -0.665,-1.57988 -2.46204,-9.28205 -3.99295,-17.11539 -1.88123,-9.62602 -2.62242,-15.25597 -2.2872,-17.37039 0.27281,-1.72065 1.21756,-4.29627 2.09983,-5.7238 0.88307,-1.42885 4.62234,-4.5842 8.31816,-7.01809 3.69239,-2.43163 7.73126,-4.77572 8.97688,-5.20994 1.53365,-0.5346 3.24399,-0.51791 5.29689,0.0521 1.66735,0.46299 4.07593,0.84413 5.35289,0.8461 1.27697,0.002 3.81892,-0.7196 5.64846,-1.60528 1.84537,-0.89332 4.29646,-3.01131 5.50552,-4.756 1.73965,-2.5103 2.18097,-4.03235 2.18097,-7.54158 0,-3.57468 -0.42804,-5.00198 -2.28913,-7.63625 -1.25895,-1.78192 -3.666,-3.95121 -5.34712,-4.81974 -1.73354,-0.89559 -4.51414,-1.55689 -6.42503,-1.52801 -1.85311,0.028 -4.39369,0.58471 -5.64653,1.23632 -1.25282,0.6516 -3.03765,2.02008 -3.96591,3.0406 -0.92827,1.02051 -2.2635,2.99427 -2.96718,4.38702 -0.70369,1.39273 -1.28076,3.24507 -1.28076,4.11658 0,0.87149 -0.43261,2.53545 -0.96201,3.69738 -0.57209,1.2556 -4.21072,4.29365 -8.9711,7.4875 -4.40519,2.95558 -8.97451,6.51929 -10.15331,7.92021 -1.1788,1.40093 -2.89493,4.0135 -3.81331,5.80494 -1.04611,2.04064 -1.80332,5.32522 -2.02834,8.7953 -0.27802,4.28747 0.31167,8.93586 2.61367,20.57323 2.82159,14.26409 2.9322,15.3818 2.1346,21.84434 -0.63476,5.14305 -1.54879,8.21497 -3.7283,12.54292 -1.64306,3.26268 -4.57071,7.39119 -6.79787,9.58345 -2.1519,2.11821 -4.57097,4.20253 -5.37414,4.63238 -1.2858,0.68814 -1.84749,-0.0421 -4.70771,-6.10824 -1.786653,-3.78928 -3.648839,-7.95722 -4.137823,-9.26278 -0.488983,-1.30556 -1.766406,-5.75634 -2.837754,-9.89061 -1.17208,-4.52297 -2.133154,-10.98385 -2.414701,-16.22098 -0.261465,-4.86361 -0.94774,-9.6537 -1.555064,-10.85649 -0.597767,-1.18386 -1.788422,-2.52637 -2.644579,-2.98458 -1.319346,-0.7061 -1.48891,-1.4045 -1.120421,-4.57439 0.239122,-2.05702 0.795271,-5.5202 1.236326,-7.69614 0.441058,-2.17594 0.983685,-5.02481 1.20735,-6.33037 0.223665,-1.30556 1.762682,-5.98243 3.419214,-10.39287 1.65653,-4.41043 4.164401,-10.10626 5.573124,-12.65881 1.408724,-2.55255 4.278818,-7.13406 6.378668,-10.18037 2.09986,-3.04631 6.05287,-8.00629 8.7837,-11.02262 2.73084,-3.01632 7.57329,-7.55534 10.75991,-10.08765 3.18663,-2.53231 6.46076,-4.605316 7.27695,-4.605316 0.81618,0 1.70336,0.35684 1.97231,0.79202 0.26897,0.435186 1.11792,0.790086 1.88541,0.790086 0.76747,0 4.57642,-1.547856 8.46496,-3.440457 3.88857,-1.892604 9.20506,-4.187773 11.81271,-5.099845 2.60766,-0.912061 7.58943,-2.350876 11.07091,-3.198993 3.4815,-0.848129 7.80935,-1.758095 9.61823,-2.020621 0.82222,-0.119325 1.43905,-0.207922 1.90859,-0.216356 z m 133.83808,11.575101 c -1.09841,-0.156745 -3.78403,1.177596 -9.87323,4.829392 -6.59806,3.95698 -9.09382,5.86027 -8.77404,6.69355 0.24575,0.64046 1.03129,1.16489 1.74631,1.16293 0.71502,-0.002 2.50502,-0.73853 3.97748,-1.63621 1.65204,-1.00715 2.95896,-1.34887 3.41342,-0.8944 0.45445,0.45445 0.26427,3.22425 -0.49646,7.23443 -0.87794,4.62816 -0.999,6.93538 -0.41919,8.01873 0.44777,0.83668 1.12875,1.52223 1.51257,1.52223 0.3838,0 1.07898,-1.77299 1.54347,-3.93885 0.46449,-2.16587 1.07789,-5.39999 1.36382,-7.18807 0.28593,-1.78811 0.98013,-3.42907 1.54348,-3.64525 0.56335,-0.21616 3.75499,0.55029 7.09149,1.70188 3.33651,1.15163 6.2317,1.92805 6.43469,1.72508 0.20299,-0.20299 -0.0857,-1.0982 -0.64135,-1.98778 -0.64637,-1.03501 -3.3718,-2.35353 -7.57055,-3.66262 -3.60887,-1.12518 -6.56219,-2.30397 -6.56219,-2.61948 0,-0.3155 1.60189,-1.5409 3.56022,-2.72378 1.95835,-1.18288 3.56024,-2.47219 3.56024,-2.8648 0,-0.392596 -0.46381,-1.099306 -1.03156,-1.570507 -0.0975,-0.08083 -0.22171,-0.134081 -0.37862,-0.156475 z M 61.975859,103.55405 c -0.33124,0.005 -0.540635,0.13382 -0.685774,0.36317 -0.394115,0.62279 -0.70212,1.48884 -0.683844,1.92404 0.01828,0.43518 4.019057,3.17738 8.889957,6.09469 4.870899,2.91733 9.212019,5.20323 9.647208,5.08053 0.435185,-0.12269 0.905759,-0.99632 1.04508,-1.94333 0.161642,-1.09877 -0.26709,-1.91774 -1.186101,-2.2621 -0.792099,-0.29681 -4.940881,-2.6746 -9.218354,-5.28336 -4.725758,-2.88218 -6.814449,-3.98777 -7.808172,-3.97364 z m 94.314291,20.8804 c 2.38072,0 3.42384,0.47493 4.75213,2.16356 1.24829,1.58697 1.57518,2.79704 1.22666,4.53963 -0.26132,1.3066 -0.91643,2.8173 -1.45654,3.3574 -0.5401,0.5401 -2.12086,1.20924 -3.51194,1.48745 -2.12342,0.4247 -2.91426,0.12057 -4.93372,-1.89891 -1.32298,-1.32298 -2.40697,-3.09757 -2.40697,-3.94273 0,-0.84515 0.73809,-2.47346 1.64006,-3.62011 1.26492,-1.60809 2.33763,-2.08629 4.69032,-2.08629 z m -85.462968,2.49389 c -1.469991,-0.0143 -3.497338,0.0392 -5.727667,0.1642 -4.460661,0.25001 -9.794431,0.46638 -11.853276,0.481 -3.368323,0.0239 -3.795576,0.23398 -4.263393,2.0979 -0.413301,1.64673 -0.05097,2.50575 1.765627,4.18999 1.256824,1.16524 4.893096,4.50606 8.082481,7.42374 3.189386,2.91771 6.090008,5.30462 6.44435,5.30462 0.354344,0 0.868956,-0.58435 1.143601,-1.30007 0.280684,-0.73145 -0.08286,-1.94406 -0.828723,-2.76822 -1.242516,-1.37296 -1.238002,-1.68076 0.06762,-4.83132 0.766879,-1.85056 1.704134,-4.16511 2.082437,-5.14429 0.393241,-1.01785 1.361626,-1.78107 2.260158,-1.78107 0.864391,0 1.939088,-0.68821 2.389587,-1.52997 0.450497,-0.84174 0.819065,-1.76985 0.819065,-2.0631 0,-0.14662 -0.911869,-0.22916 -2.381859,-0.24341 z m 255.419158,2.55573 c -0.49081,-0.0805 -1.11967,-0.0283 -1.89119,0.15647 -1.2643,0.30282 -2.6537,0.80447 -3.0889,1.11461 -0.43519,0.31016 -3.64089,1.56606 -7.12239,2.78947 -3.4815,1.22341 -6.64356,2.49836 -7.02774,2.83389 -0.38418,0.33552 -0.48388,1.16861 -0.22216,1.85063 0.26172,0.68203 0.78075,1.24019 1.15327,1.24019 0.37252,0 4.03285,-1.20208 8.13464,-2.67163 4.10179,-1.46955 8.43692,-3.0629 9.63368,-3.54091 1.19676,-0.47802 2.1705,-1.14643 2.16357,-1.48359 -0.007,-0.33717 -0.30738,-1.07858 -0.66839,-1.64781 -0.2203,-0.34736 -0.57359,-0.56089 -1.06439,-0.64132 z m -267.637537,1.37734 c 2.41439,0.0978 4.572765,0.47168 4.794627,0.83065 0.221861,0.35898 -0.22891,1.72062 -1.000653,3.02706 -0.771738,1.30647 -1.592952,2.36133 -1.825511,2.34324 -0.232561,-0.018 -1.758291,-1.2138 -3.390237,-2.65618 -1.631949,-1.44236 -2.967183,-2.86931 -2.967183,-3.17195 0,-0.3026 1.974568,-0.47054 4.388957,-0.37282 z m 273.048387,15.73031 c -0.49259,9.9e-4 -4.63536,0.7137 -9.20483,1.58211 -4.56946,0.8684 -9.07534,1.75589 -10.01425,1.97233 -1.24809,0.28772 -1.59673,0.81955 -1.29426,1.97619 0.36947,1.41293 0.85914,1.52945 4.58599,1.09145 4.17276,-0.49043 4.17459,-0.49155 4.70576,3.76113 0.29215,2.33897 0.89107,5.19017 1.33099,6.33424 0.43991,1.14408 1.57468,2.45467 2.52287,2.9131 0.94819,0.45839 2.85502,0.85719 4.23828,0.88666 1.38327,0.0295 3.07828,-0.50904 3.76501,-1.19575 0.6867,-0.68673 1.62966,-1.96069 2.09596,-2.83196 0.62564,-1.16899 0.49581,-3.53645 -0.49454,-9.03677 -0.76242,-4.23435 -1.72816,-7.45373 -2.23698,-7.45273 z m -3.93693,4.44498 c 1.04777,-0.0494 1.42616,0.36505 1.88154,1.56279 0.39202,1.03105 0.8143,3.74987 0.9369,6.04255 0.22219,4.15541 0.21465,4.16999 -2.2814,4.41213 -1.86444,0.18087 -2.61138,-0.12342 -2.92276,-1.18803 -0.23001,-0.78637 -0.65585,-3.1153 -0.94657,-5.17519 -0.2907,-2.05988 -0.50711,-4.0168 -0.48099,-4.35032 0.0261,-0.3335 1.15797,-0.83318 2.51514,-1.11076 0.52553,-0.10747 0.94889,-0.17668 1.29814,-0.19317 z m -139.38415,2.29107 c 7.56125,0.01 9.20587,0.25791 12.52746,1.897 2.10288,1.03768 5.74294,3.64225 8.0902,5.78754 2.7743,2.53556 5.17561,5.74256 6.85968,9.1662 2.42854,4.93709 2.59049,5.78813 2.59049,13.58799 0,7.6157 -0.19515,8.70417 -2.2988,12.85586 -1.26408,2.49472 -3.75824,6.06031 -5.54221,7.92214 -1.78396,1.86184 -4.9015,4.35583 -6.92922,5.54415 -2.02772,1.18833 -5.94305,2.6938 -8.70066,3.34387 -2.75758,0.6501 -6.0834,1.15679 -7.38897,1.12622 -1.30556,-0.0306 -4.15251,-0.49624 -6.32844,-1.03542 -2.17595,-0.53917 -5.38165,-1.71908 -7.1224,-2.6214 -1.74075,-0.90231 -4.84862,-3.12569 -6.90604,-4.93951 -2.50192,-2.20569 -4.72811,-5.29816 -6.72445,-9.33812 -2.79881,-5.66382 -2.98344,-6.48668 -2.95753,-13.20165 0.0245,-6.35896 0.31003,-7.7614 2.54028,-12.52165 1.55101,-3.31052 4.03061,-6.84134 6.48491,-9.23189 2.18591,-2.12914 6.0283,-4.87954 8.53837,-6.11208 4.17734,-2.05127 5.30055,-2.23954 13.26733,-2.22925 z m -5.09986,13.83526 c -2.52421,0 -3.20381,0.33 -3.65489,1.77915 -0.30478,0.97917 -3,7.75957 -5.98844,15.06579 -2.98846,7.30621 -5.43404,13.62555 -5.43404,14.0439 0,0.41833 1.26492,0.7611 2.81071,0.7611 2.41143,0 2.92751,-0.33745 3.6375,-2.37412 0.82749,-2.37375 0.82794,-2.37414 8.64269,-2.37414 7.81477,0 7.81506,3.9e-4 9.04255,2.37414 1.01724,1.96712 1.7123,2.37412 4.06058,2.37412 1.9464,0 2.71213,-0.30971 2.4456,-0.98907 -0.2134,-0.54397 -2.53317,-6.33 -5.15586,-12.85778 -2.62269,-6.52779 -5.33897,-13.20396 -6.03676,-14.83591 -1.15797,-2.70821 -1.53924,-2.96718 -4.36964,-2.96718 z m 22.50694,0 c -2.76938,0 -2.76821,2e-5 -2.76821,15.82496 0,15.82496 -10e-4,15.82498 2.76821,15.82498 2.76937,0 2.77014,-2e-5 2.77014,-15.82498 0,-15.82494 -7.7e-4,-15.82496 -2.77014,-15.82496 z m -164.580105,4.74633 c -1.97812,0 -1.978122,3.9e-4 -1.978122,8.3085 0,8.30809 0.0012,8.30849 11.07864,8.30849 10.944268,0 11.077516,-0.0221 11.130796,-1.78108 0.02966,-0.97917 0.106459,-4.62802 0.169995,-8.10952 0.113724,-6.23117 0.08416,-6.33038 -1.835171,-6.33038 -1.884588,0 -1.957585,0.20616 -2.180956,6.13334 -0.231095,6.13217 -0.231098,6.1314 -2.967183,6.1314 -1.629005,0 -2.759125,-0.40019 -2.795256,-0.98906 -0.03339,-0.54398 -0.123545,-2.59095 -0.198971,-4.54929 -0.117083,-3.04011 -0.396253,-3.59742 -1.916305,-3.8133 -1.619336,-0.22997 -1.781081,0.0677 -1.781081,3.29752 0,1.953 -0.21686,4.11399 -0.481007,4.80235 -0.264159,0.68836 -1.3308,1.25178 -2.372202,1.25178 -1.839365,0 -1.895056,-0.18137 -1.895056,-6.33038 0,-6.22447 -0.03298,-6.33037 -1.978121,-6.33037 z m 141.945675,3.70318 c 0.36572,-0.2916 0.80631,0.54783 1.77335,3.02321 0.85007,2.17593 2.06514,5.07881 2.69868,6.45014 0.63352,1.37132 1.15132,2.70656 1.15132,2.96718 0,0.26061 -2.31556,0.47328 -5.14427,0.47328 -2.82871,0 -5.14235,-0.29471 -5.14235,-0.65486 0,-0.36017 0.83702,-2.76397 1.86029,-5.34132 1.02327,-2.57735 2.12376,-5.39817 2.44561,-6.26856 0.12204,-0.33005 0.23547,-0.55187 0.35737,-0.64907 z m 67.10545,1.04509 c 1.33811,0 3.22018,0.63691 4.18226,1.41597 1.26644,1.0255 1.75019,2.27305 1.75019,4.51838 0,2.24534 -0.48375,3.49289 -1.75019,4.5184 -0.96208,0.77906 -2.89328,1.41597 -4.29237,1.41597 -1.63593,0 -3.1589,-0.65357 -4.26531,-1.8313 -0.98006,-1.04323 -1.71928,-2.85586 -1.71928,-4.21317 0,-1.46748 0.70342,-3.04345 1.83131,-4.10306 1.06053,-0.99631 2.85448,-1.72119 4.26339,-1.72119 z m 69.07392,4.59179 c -4.35185,-0.17092 -4.35198,-0.17096 -4.9704,7.2692 -0.34016,4.0921 -0.43985,7.90349 -0.22216,8.47076 0.21767,0.56728 1.06912,1.03157 1.89311,1.03157 1.29242,0 1.5739,-0.83539 2.0496,-6.08504 0.30331,-3.347 0.69268,-6.31358 0.86543,-6.5931 0.17276,-0.27953 1.39908,-0.34897 2.72379,-0.15454 2.37108,0.34801 2.40696,0.42573 2.40696,5.01099 0,4.41539 0.10171,4.65746 1.9395,4.65746 1.80507,0 1.95422,-0.31306 2.17516,-4.54929 0.2223,-4.2622 0.3626,-4.55123 2.21572,-4.55123 1.96961,0 1.97818,0.0297 1.73859,6.52936 -0.23728,6.43669 -0.21475,6.52741 1.66518,6.52741 1.77642,0 1.94084,-0.36488 2.41083,-5.34132 0.27744,-2.9375 0.50701,-6.63336 0.50998,-8.21383 0.006,-2.87359 0.006,-2.87369 -6.52162,-3.35547 -3.59027,-0.26498 -8.48614,-0.55897 -10.87967,-0.65293 z M 61.657118,199.85419 c -0.391061,-0.12328 -1.223568,0.0994 -1.848693,0.49452 -0.984533,0.62234 -0.96926,1.4929 0.115906,6.5139 0.689022,3.18807 1.156127,5.90163 1.037354,6.02903 -0.118772,0.12741 -1.478565,0.43543 -3.02127,0.68576 -2.804243,0.45508 -2.804093,0.45463 -3.332287,-3.06763 -0.290576,-1.9377 -0.807543,-3.97224 -1.147464,-4.52224 -0.339921,-0.55002 -1.287392,-0.86372 -2.105617,-0.69544 -0.938204,0.19296 -1.417092,0.87948 -1.296211,1.85835 0.105422,0.85371 0.421109,3.06678 0.701228,4.91633 0.487017,3.21561 0.421167,3.36126 -1.522225,3.36126 -1.257804,0 -2.184093,-0.52616 -2.428222,-1.38314 -0.216949,-0.76158 -0.800196,-3.43204 -1.29621,-5.93436 -0.73043,-3.68495 -1.195009,-4.55123 -2.451402,-4.55123 -0.853173,0 -1.751903,0.52037 -1.995508,1.15519 -0.243605,0.63484 -0.0773,2.32497 0.368966,3.75728 0.446284,1.4323 1.223413,4.68705 1.726993,7.23251 0.816579,4.12757 1.100098,4.5904 2.62333,4.26917 0.939369,-0.19808 5.73975,-1.17869 10.667173,-2.17901 8.958954,-1.81876 8.958113,-1.81966 8.420539,-5.85131 -0.295665,-2.2174 -0.980614,-5.79479 -1.522226,-7.94918 -0.541614,-2.15438 -1.303088,-4.01649 -1.694154,-4.13976 z m 160.718512,6.75343 c 0.60876,-0.0549 1.12441,0.31155 1.95107,0.9002 1.21246,0.86334 2.77877,3.00662 3.48103,4.76179 0.70229,1.75515 1.2769,4.26677 1.2769,5.58084 0,1.31411 -0.67325,3.70934 -1.49711,5.32393 -0.83481,1.63609 -5.47558,6.44364 -10.48365,10.86037 -4.94237,4.35873 -10.6024,9.23686 -12.57769,10.83909 -1.97531,1.60224 -5.09086,3.24894 -6.92343,3.66069 -2.03113,0.45641 -4.57866,0.46982 -6.52355,0.0329 -1.75477,-0.39428 -6.20847,-2.34945 -9.89833,-4.34454 -3.68987,-1.99506 -7.24794,-4.39456 -7.9067,-5.33164 -0.65876,-0.93709 -1.55385,-3.02214 -1.98971,-4.6343 -0.43584,-1.61217 -1.71518,-4.02931 -2.84355,-5.37029 -1.12835,-1.34098 -3.07245,-2.96563 -4.31941,-3.61045 -1.24697,-0.64484 -3.99229,-1.2101 -6.10049,-1.25758 -2.10819,-0.0475 -4.69526,0.35932 -5.74893,0.90405 -1.05365,0.54475 -2.75027,1.74686 -3.77079,2.67163 -1.02051,0.92479 -2.35575,2.64202 -2.96718,3.81717 -0.61143,1.17513 -1.1127,3.71393 -1.1127,5.64072 0,1.9268 0.5222,4.75013 1.15907,6.27436 0.63685,1.52422 2.2539,3.69515 3.59499,4.8236 1.3411,1.12846 3.79468,2.45729 5.45143,2.95366 2.43386,0.72921 3.8551,0.65707 7.40444,-0.37477 2.41608,-0.70235 5.32661,-1.27688 6.46753,-1.27688 1.14092,0 5.18208,1.55127 8.97881,3.44626 3.79673,1.895 8.14916,3.93545 9.67231,4.53576 1.54726,0.60983 5.38704,1.06668 8.7026,1.03543 4.74654,-0.0448 6.72622,-0.46191 9.8906,-2.08822 2.17593,-1.11832 7.47057,-5.00398 11.76441,-8.63497 4.29386,-3.63099 10.28943,-8.61355 13.32527,-11.07091 3.03586,-2.45736 7.48632,-5.2198 9.88867,-6.13914 2.40237,-0.91934 6.774,-2.06812 9.71483,-2.55378 3.9992,-0.66048 6.68844,-0.65038 10.66718,0.0426 2.92577,0.5095 6.70898,1.48337 8.40895,2.16357 1.69996,0.68018 3.09082,1.57054 3.09082,1.97813 0,0.40758 -1.82941,3.48343 -4.06637,6.83649 -2.23694,3.35304 -7.49738,9.48076 -11.68907,13.61503 -4.22799,4.17008 -10.85268,9.62908 -14.88034,12.26281 -3.99311,2.61112 -7.63616,5.56641 -8.09407,6.56605 -0.4579,0.99966 -0.83259,2.66255 -0.83259,3.69546 0,1.4785 -0.54668,1.99534 -2.57118,2.42823 -1.41436,0.30243 -2.96971,0.86957 -3.45784,1.26142 -0.48813,0.39188 -3.51545,1.61144 -6.72639,2.71026 -3.21095,1.09883 -10.06075,2.71288 -15.22227,3.58535 -6.27327,1.0604 -12.17557,1.52027 -17.8031,1.38701 -4.63016,-0.10965 -9.48717,-0.31897 -10.79274,-0.46362 -1.30555,-0.14466 -5.11983,-0.80293 -8.47655,-1.46427 -3.3567,-0.66135 -8.51921,-2.02619 -11.47273,-3.03094 -2.95348,-1.00476 -7.06235,-2.48337 -9.12947,-3.28786 -3.0026,-1.16853 -3.75729,-1.8371 -3.75729,-3.32262 0,-1.02272 -0.365,-2.54273 -0.81134,-3.37671 -0.44633,-0.83398 -3.84311,-3.53325 -7.54737,-5.99813 -3.70426,-2.46486 -8.76843,-6.3002 -11.25443,-8.52485 -2.486,-2.22463 -6.15014,-5.82308 -8.14237,-7.99555 -1.99225,-2.17246 -4.21762,-4.82938 -4.94531,-5.90538 -0.72766,-1.076 -1.32209,-2.32301 -1.32132,-2.77014 7.8e-4,-0.44716 1.69093,-1.8611 3.75726,-3.14298 2.06637,-1.28186 8.9198,-5.69945 15.23001,-9.81527 6.3102,-4.11581 12.9644,-8.14597 14.78568,-8.95756 1.82128,-0.81159 4.97294,-1.78788 7.00457,-2.16743 2.03161,-0.37951 5.96397,-0.4077 8.73734,-0.0638 2.8324,0.35127 8.05652,1.91979 11.92087,3.57956 4.34169,1.8648 8.87516,3.17401 12.28793,3.54863 3.54844,0.38954 7.49181,0.23123 11.47079,-0.45974 3.33517,-0.57916 8.40795,-2.19939 11.27182,-3.60273 3.37238,-1.65254 7.11616,-4.45501 10.6266,-7.95306 3.38764,-3.37567 4.659,-4.64134 5.67358,-4.73281 z m 90.42566,2.67549 c -0.45827,0.15276 -1.4953,2.39877 -2.30459,4.99166 -0.80928,2.59289 -1.47765,6.20699 -1.48359,8.03226 -0.008,2.31729 0.52636,3.93948 1.76949,5.37416 0.97916,1.13005 3.20455,2.57738 4.94531,3.21637 1.76946,0.64952 4.72199,1.01816 6.69741,0.83646 2.71066,-0.24932 3.95421,-0.84978 5.33937,-2.5789 0.99307,-1.23964 2.64869,-4.84804 3.68001,-8.01874 1.69408,-5.20829 1.75306,-5.82742 0.59691,-6.4231 -0.70384,-0.36263 -5.13442,-1.79528 -9.84424,-3.18354 -4.70984,-1.38826 -8.93779,-2.3994 -9.39608,-2.24663 z m 3.03285,4.56281 c 0.67656,0 3.6885,0.74663 6.69355,1.65938 4.04909,1.22988 5.46302,2.02017 5.46302,3.04833 0,0.76303 -0.40532,2.59671 -0.90214,4.07601 -0.49681,1.4793 -1.44314,3.3125 -2.10175,4.07407 -0.66009,0.76329 -2.2953,1.38382 -3.64522,1.38315 -1.3469,-6.8e-4 -3.69647,-0.62224 -5.21962,-1.38315 -2.25561,-1.1268 -2.81654,-1.89766 -3.03092,-4.15329 -0.14479,-1.52315 0.13532,-4.10536 0.62394,-5.73732 0.53159,-1.77534 1.38316,-2.96718 2.11914,-2.96718 z M 68.655883,227.72755 c -0.160937,0.0456 -0.329704,0.14466 -0.513847,0.29749 -0.550408,0.4568 -1.656618,2.05074 -2.45913,3.54091 -1.433355,2.66158 -1.53241,2.70146 -5.602103,2.28141 -3.699163,-0.38178 -4.362592,-0.20795 -6.189356,1.61881 -1.186794,1.1868 -2.045734,2.93918 -2.045734,4.17454 0,1.17128 1.335235,5.10834 2.967182,8.74894 2.753296,6.14185 3.109403,6.58644 4.937579,6.15264 1.083606,-0.25711 2.152179,-0.70682 2.37413,-0.99871 0.221953,-0.29188 3.885997,-2.22535 8.142366,-4.29623 7.071157,-3.44039 7.66569,-3.90024 6.894449,-5.34131 -0.842887,-1.57484 -0.848014,-1.57596 -3.948515,0.006 -1.707663,0.87119 -3.410464,1.58405 -3.782385,1.58405 -0.37192,0 -1.275649,-1.25734 -2.00903,-2.79526 -0.733382,-1.53792 -1.332914,-3.19854 -1.332914,-3.68965 0,-0.49112 1.091753,-2.59517 2.42629,-4.67485 2.03879,-3.1772 2.283498,-4.04947 1.528021,-5.46111 -0.49633,-0.92739 -0.90419,-1.28431 -1.387003,-1.14745 z m 89.152637,3.9968 c 0.72489,-0.0174 1.4139,0.0817 1.99164,0.30136 1.02775,0.39075 2.44047,1.52434 3.13716,2.51902 0.69671,0.99468 1.26531,2.63623 1.26531,3.64716 0,1.01091 -0.87323,2.71227 -1.94142,3.78046 -1.06818,1.06817 -2.76024,1.91678 -3.7592,1.88731 -0.99895,-0.0295 -2.59079,-0.42825 -3.53898,-0.88666 -0.94819,-0.45842 -2.14881,-1.85919 -2.66776,-3.11208 -0.73355,-1.77091 -0.73046,-2.79404 0.0173,-4.59952 0.57803,-1.39552 1.89244,-2.64745 3.29171,-3.13524 0.71994,-0.25097 1.47923,-0.38431 2.20415,-0.40181 z m -99.045177,5.38961 c 0.43345,-0.0663 0.811662,-0.0401 1.029629,0.0947 0.43593,0.26942 1.852947,2.5908 3.148767,5.1578 1.29582,2.56701 2.354816,4.81968 2.354816,5.00712 0,0.18743 -1.121473,0.73151 -2.491972,1.20927 -1.370498,0.47776 -2.609366,0.8693 -2.754688,0.8693 -0.145323,0 -1.160998,-1.76774 -2.256295,-3.9292 -1.095297,-2.16147 -1.991643,-4.64177 -1.991643,-5.51129 0,-0.86953 0.720129,-1.96533 1.599496,-2.43595 0.439683,-0.23532 0.928441,-0.39541 1.36189,-0.46171 z m 243.007597,1.01997 c -0.38437,-0.006 -0.61466,0.11104 -0.75338,0.33033 -0.38163,0.60322 -0.59836,1.4039 -0.481,1.77722 0.11737,0.37333 4.11852,2.72995 8.88994,5.23894 4.77141,2.50896 9.20886,4.51418 9.86163,4.45464 0.65278,-0.0595 1.18611,-0.75688 1.18611,-1.54928 0,-1.04322 -2.58732,-2.7627 -9.38062,-6.22993 -5.62773,-2.87233 -8.16955,-4.00464 -9.32268,-4.02192 z m -6.91376,13.14756 c -0.40016,-0.0873 -0.69069,0.26052 -1.20928,0.96975 -0.78266,1.07035 -0.86381,1.95758 -0.29556,3.20478 0.65203,1.43107 0.26747,2.42029 -2.26596,5.82619 -2.58113,3.47001 -3.36437,4.04169 -5.07086,3.7051 -1.43626,-0.28326 -2.29598,0.0487 -2.98458,1.15134 -0.76866,1.23077 -0.76145,1.62779 0.0387,1.93368 0.55384,0.21174 5.28074,1.58779 10.50297,3.05798 5.22225,1.4702 9.86832,2.71347 10.32526,2.76241 0.45694,0.0489 1.25885,-0.33933 1.78108,-0.86156 0.52223,-0.52222 0.94849,-1.43602 0.94849,-2.03027 0,-0.59425 -1.78031,-4.09334 -3.95624,-7.77726 -2.17594,-3.68394 -3.95625,-7.02627 -3.95625,-7.4257 0,-0.3994 -0.89564,-1.69379 -1.99163,-2.87638 -0.95527,-1.03075 -1.46592,-1.55278 -1.86608,-1.64006 z m 1.46233,10.03936 c 0.36422,0 1.58674,1.57716 2.71606,3.50421 1.12932,1.92704 2.05346,3.70734 2.05346,3.95623 0,0.24891 -0.26667,0.41778 -0.59305,0.37476 -0.3264,-0.0431 -2.1594,-0.57022 -4.07216,-1.17065 -1.91272,-0.60042 -3.64232,-1.2566 -3.84419,-1.45847 -0.20186,-0.20186 0.40861,-1.45499 1.3561,-2.78559 0.94748,-1.33061 2.01959,-2.42049 2.38378,-2.42049 z m -217.552798,2.73729 c -0.305988,-0.0572 -0.591106,-0.0361 -0.869292,0.0521 -0.837138,0.26571 -1.522226,0.7504 -1.522226,1.07793 0,0.32752 1.245058,2.05121 2.768212,3.83066 1.52315,1.77948 2.770142,3.49526 2.770142,3.8133 0,0.31803 -0.623496,1.0523 -1.385071,1.63041 -0.761577,0.57813 -1.786485,1.06215 -2.277545,1.07599 -0.491061,0.0138 -2.403281,-1.93362 -4.249872,-4.32713 -1.846589,-2.39354 -3.860436,-4.35227 -4.473954,-4.35227 -0.613514,0 -1.315849,0.52712 -1.562793,1.17066 -0.2681,0.69865 1.415004,3.55386 4.178397,7.08569 2.545327,3.25311 4.983398,5.92184 5.418583,5.93242 0.435188,0.0107 4.352646,-2.86248 8.704508,-6.38446 4.351864,-3.52198 7.797374,-6.80612 7.657494,-7.30013 -0.139882,-0.494 -0.544989,-1.19823 -0.900201,-1.56277 -0.355211,-0.36454 -2.196302,0.46038 -4.091465,1.83323 -3.445755,2.4961 -3.445572,2.49681 -6.479119,-0.75532 -1.663314,-1.78315 -2.767836,-2.64847 -3.685798,-2.82037 z m 39.009958,19.4335 c -0.35899,0.008 -2.87428,3.47118 -5.58858,7.69613 -3.91836,6.09907 -4.73344,7.88313 -3.95626,8.65815 0.53839,0.53686 3.29303,2.38902 6.12174,4.11657 4.70664,2.87445 5.23085,3.02886 6.17198,1.812 0.87733,-1.13435 0.74794,-1.56309 -0.88088,-2.91309 -1.05014,-0.87038 -3.02585,-2.18917 -4.39089,-2.93049 -1.36503,-0.74134 -2.47105,-1.63149 -2.4572,-1.97811 0.0139,-0.34665 0.53841,-1.30693 1.16486,-2.13459 1.1073,-1.463 1.22723,-1.44688 4.30976,0.59304 1.74391,1.15405 3.34283,2.09789 3.55444,2.09789 0.21162,0 0.7611,-0.70179 1.22086,-1.56086 0.72218,-1.34942 0.40376,-1.83652 -2.34515,-3.57181 -1.75003,-1.10474 -3.18162,-2.3712 -3.18162,-2.81459 0,-0.44339 0.49316,-0.99367 1.09531,-1.22474 0.60214,-0.23105 2.90785,0.69504 5.12496,2.05925 2.21713,1.36422 4.39442,2.25486 4.83905,1.98008 0.44462,-0.27481 0.80941,-1.01965 0.80941,-1.65553 0,-0.63588 -2.46669,-2.75041 -5.48038,-4.69998 -3.01373,-1.94955 -5.77243,-3.53722 -6.13141,-3.52932 z m 139.02291,1.35222 c -0.28156,-0.0151 -0.56481,0.0826 -0.89054,0.25694 -0.82742,0.44281 -1.50291,0.98802 -1.50291,1.21121 0,0.22318 1.24506,2.35368 2.76821,4.73474 1.52316,2.38106 2.77015,4.63622 2.77015,5.01293 0,0.37668 -0.87844,1.25982 -1.95107,1.96264 -1.07265,0.70285 -2.31771,1.27883 -2.76822,1.27883 -0.49015,0 -0.81907,-2.33069 -0.81907,-5.80299 0,-3.19136 -0.22551,-6.02659 -0.50032,-6.3014 -0.27481,-0.27481 -1.16498,-0.1435 -1.97812,0.29169 -1.27816,0.68407 -1.4778,1.7692 -1.4778,8.01874 0,5.4401 0.30512,7.56755 1.23439,8.5944 1.16403,1.28622 1.42456,1.25482 4.5493,-0.56215 1.82316,-1.06011 3.95928,-2.3596 4.74633,-2.88604 1.17443,-0.78554 1.61721,-0.7053 2.47072,0.44236 0.61238,0.82344 1.56285,1.19671 2.31039,0.90987 0.95684,-0.36717 1.19512,-1.29488 0.96974,-3.7708 -0.16448,-1.80675 -0.3353,-3.55258 -0.37862,-3.87897 -0.0434,-0.32639 -0.70078,-0.59683 -1.46236,-0.60078 -0.82027,-0.004 -2.62551,-1.93277 -4.4295,-4.73282 -1.97801,-3.07009 -2.816,-4.13293 -3.6607,-4.1784 z m -118.64673,10.70775 c -0.80485,-0.10418 -1.40236,0.14247 -2.33935,0.6684 -1.12882,0.63358 -2.40943,2.16576 -2.84548,3.40568 -0.74215,2.11026 -0.51936,2.49535 3.4733,6.01551 3.14529,2.77305 4.12537,4.12188 3.73602,5.13654 -0.41167,1.07279 -1.08256,1.26437 -3.04832,0.87123 -1.38672,-0.27735 -3.32214,-1.25449 -4.3001,-2.17323 -1.00477,-0.94395 -2.31044,-1.46573 -3.00387,-1.19963 -0.67493,0.25901 -1.2286,0.95994 -1.2286,1.55894 0,0.599 0.68838,1.71296 1.52995,2.47458 0.84155,0.7616 2.89045,1.87659 4.55123,2.47844 1.66075,0.60187 3.90949,0.90853 4.99745,0.68193 1.08796,-0.22663 2.59969,-1.14766 3.36126,-2.04768 0.76157,-0.90002 1.38507,-2.55386 1.38507,-3.67614 0,-1.4381 -1.18638,-3.14 -4.02192,-5.7605 -2.43494,-2.25031 -3.68214,-3.92813 -3.15843,-4.2518 0.47593,-0.29415 1.57482,-0.30994 2.44176,-0.0349 0.86693,0.27517 1.94341,1.18746 2.39345,2.02836 0.45003,0.8409 1.5423,1.52995 2.42628,1.52995 1.28652,0 1.55652,-0.43339 1.3561,-2.17515 -0.19721,-1.71404 -1.07079,-2.5839 -4.12044,-4.09534 -1.7675,-0.87598 -2.7805,-1.33112 -3.58536,-1.4353 z m 97.776,1.37541 c -2.27264,0 -4.35897,0.61446 -6.13333,1.80621 -2.14564,1.4411 -2.73898,2.41392 -2.9382,4.81587 -0.21116,2.54583 -0.0278,2.96647 1.18225,2.73344 0.78674,-0.15152 1.87513,-1.20538 2.42047,-2.34324 0.54535,-1.13782 2.05578,-2.50995 3.35547,-3.04831 1.29969,-0.53838 2.9035,-0.7712 3.5641,-0.51771 0.6606,0.2535 1.20156,1.18183 1.20156,2.06313 0,0.97019 -1.29979,2.54279 -3.29366,3.98715 -1.81116,1.312 -3.81472,3.13036 -4.4527,4.04124 -0.95059,1.35714 -0.99302,2.21471 -0.23568,4.74247 0.5083,1.69654 1.19626,3.08308 1.52995,3.08308 0.33371,0 3.60101,-1.20729 7.25957,-2.68321 3.65853,-1.4759 6.74801,-2.98955 6.86547,-3.36319 0.11746,-0.37365 -0.10059,-1.17545 -0.48488,-1.78301 -0.58029,-0.91743 -1.55063,-0.76273 -5.7238,0.90984 -2.76373,1.1077 -5.34995,1.8136 -5.747,1.57054 -0.39702,-0.24307 0.0123,-1.00774 0.90988,-1.69994 0.89756,-0.69225 2.91313,-2.2522 4.47973,-3.46752 2.295,-1.78038 2.84935,-2.74113 2.84935,-4.9453 0,-1.68063 -0.61183,-3.34722 -1.58404,-4.31942 -1.09767,-1.09767 -2.63589,-1.58212 -5.02451,-1.58212 z m -83.04439,4.07796 c -1.22212,-0.0682 -1.34064,0.33224 -1.34064,1.698 0,1.614 0.48818,2.05266 2.7682,2.4804 1.8961,0.3557 2.76161,0.94451 2.7431,1.86801 -0.0147,0.74185 -0.68385,4.11595 -1.48551,7.49715 -1.33956,5.64982 -1.35259,6.20553 -0.17,6.8732 0.70772,0.39957 1.56984,0.44735 1.91629,0.10626 0.34647,-0.34113 1.36436,-3.73519 2.2621,-7.54355 1.63228,-6.92426 1.63243,-6.92452 5.16938,-6.3941 3.33548,0.50017 3.52187,0.43053 3.27627,-1.23054 -0.21072,-1.42527 -1.24154,-2.04119 -5.40313,-3.22218 -2.82872,-0.80271 -6.47757,-1.66861 -8.10953,-1.92596 -0.68906,-0.10866 -1.21916,-0.18398 -1.62653,-0.20669 z m 61.67914,2.5248 c -0.8657,-0.0932 -1.77564,-0.0629 -2.64652,0.10046 -1.53475,0.28792 -3.63936,1.37344 -4.6787,2.41277 -1.44171,1.44168 -1.8912,2.74803 -1.8912,5.51131 0,1.99209 0.49815,4.81045 1.10497,6.26274 0.60681,1.45231 1.93081,3.22148 2.94399,3.93114 1.0132,0.70965 2.66523,1.29043 3.67034,1.29043 1.00513,0 3.03265,-0.50449 4.50681,-1.12043 1.47414,-0.61593 3.06684,-1.83745 3.53704,-2.71606 0.47022,-0.87861 0.85259,-3.13476 0.85191,-5.01292 -6.8e-4,-1.87813 -0.62224,-4.66091 -1.38314,-6.18355 -0.7609,-1.52266 -2.39407,-3.24857 -3.62784,-3.83454 -0.70009,-0.33249 -1.52196,-0.54815 -2.38766,-0.64135 z m -23.92483,2.56151 c -1.04036,-0.009 -2.10326,0.0976 -3.07344,0.31874 -1.72909,0.39432 -3.59765,1.33801 -4.15328,2.0979 -0.55564,0.75987 -1.01032,2.02544 -1.01032,2.81263 0,0.89523 0.58267,1.43144 1.55508,1.43144 0.85506,0 1.93535,-0.71174 2.40117,-1.5821 0.62133,-1.16099 1.65623,-1.58213 3.8867,-1.58213 1.72561,0 3.46374,0.50851 4.01807,1.17645 0.53692,0.64725 0.77494,1.70113 0.52929,2.34129 -0.24565,0.64017 -2.51122,1.74333 -5.03416,2.4514 -2.52295,0.70809 -5.2095,2.00848 -5.97107,2.88992 -0.76158,0.88146 -1.38508,2.80969 -1.38508,4.28464 0,2.68171 1e-5,2.68128 7.9125,2.68128 7.91247,0 7.91248,-7.1e-4 7.91248,-2.02062 0,-1.98914 -0.0842,-2.01794 -5.54995,-1.85835 -3.05267,0.0891 -5.75349,-0.0413 -6.00198,-0.28976 -0.24847,-0.24848 0.2018,-0.78839 1.00066,-1.20157 0.79885,-0.41316 2.76103,-0.9881 4.36191,-1.27688 1.60089,-0.28876 3.72039,-1.18096 4.70964,-1.98199 1.31698,-1.06644 1.77736,-2.22985 1.71733,-4.34838 -0.0451,-1.59134 -0.51456,-3.41593 -1.04315,-4.05284 -0.52859,-0.63692 -2.25523,-1.50267 -3.83649,-1.92402 -0.88723,-0.23642 -1.90557,-0.35854 -2.94591,-0.36705 z m 22.62089,1.12235 c 1.46326,0 2.72669,0.63128 3.51581,1.7579 0.67745,0.96721 1.23246,3.21141 1.23246,4.98588 0,1.77448 -0.42627,3.65231 -0.9485,4.17453 -0.52221,0.52222 -2.08225,0.95042 -3.46558,0.95042 -2.01676,0 -2.6782,-0.43036 -3.33808,-2.17515 -0.45261,-1.19677 -1.02025,-3.09062 -1.26143,-4.20736 -0.25876,-1.19819 0.0585,-2.73958 0.77269,-3.75923 0.76896,-1.09784 2.0415,-1.72699 3.49263,-1.72699 z" />
  </g>
</svg>
