<?xml version="1.0" encoding="UTF-8" standalone="no"?>
<!-- Created with Inkscape (http://www.inkscape.org/) -->

<svg
   version="1.1"
   id="svg1"
   width="600"
   height="80"
   viewBox="0 0 600 80"
   sodipodi:docname="FreeAIWiki.svg"
   inkscape:export-filename="FreeAIWiki.png"
   inkscape:export-xdpi="160"
   inkscape:export-ydpi="160"
   xmlns:inkscape="http://www.inkscape.org/namespaces/inkscape"
   xmlns:sodipodi="http://sodipodi.sourceforge.net/DTD/sodipodi-0.dtd"
   xmlns:xlink="http://www.w3.org/1999/xlink"
   xmlns="http://www.w3.org/2000/svg"
   xmlns:svg="http://www.w3.org/2000/svg">
  <defs
     id="defs1">
    <linearGradient
       id="linearGradient5"
       inkscape:collect="always">
      <stop
         style="stop-color:#ff00cc;stop-opacity:1;"
         offset="0"
         id="stop5" />
      <stop
         style="stop-color:#007bff;stop-opacity:1;"
         offset="1"
         id="stop6" />
    </linearGradient>
    <linearGradient
       id="linearGradient2"
       inkscape:collect="always">
      <stop
         style="stop-color:#007bff;stop-opacity:1;"
         offset="0"
         id="stop3" />
      <stop
         style="stop-color:#ff00cc;stop-opacity:1;"
         offset="1"
         id="stop4" />
    </linearGradient>
    <linearGradient
       id="linearGradient1"
       inkscape:collect="always">
      <stop
         style="stop-color:#ff00cc;stop-opacity:1;"
         offset="0"
         id="stop1" />
      <stop
         style="stop-color:#007bff;stop-opacity:1;"
         offset="1"
         id="stop2" />
    </linearGradient>
    <radialGradient
       inkscape:collect="always"
       xlink:href="#linearGradient1"
       id="radialGradient2"
       cx="41.511715"
       cy="251.75284"
       fx="41.511715"
       fy="251.75284"
       r="150.39731"
       gradientTransform="matrix(0.35043673,0,0,0.3438217,292.58482,-17.398006)"
       gradientUnits="userSpaceOnUse" />
    <linearGradient
       inkscape:collect="always"
       xlink:href="#linearGradient2"
       id="linearGradient4"
       x1="353.96338"
       y1="69.466194"
       x2="624.46338"
       y2="69.466194"
       gradientUnits="userSpaceOnUse" />
    <linearGradient
       inkscape:collect="always"
       xlink:href="#linearGradient5"
       id="linearGradient6"
       x1="50.809021"
       y1="69.466194"
       x2="254.90277"
       y2="69.466194"
       gradientUnits="userSpaceOnUse" />
  </defs>
  <sodipodi:namedview
     id="namedview1"
     pagecolor="#ffffff"
     bordercolor="#000000"
     borderopacity="0.25"
     inkscape:showpageshadow="2"
     inkscape:pageopacity="0.0"
     inkscape:pagecheckerboard="0"
     inkscape:deskcolor="#d1d1d1" />
  <g
     inkscape:groupmode="layer"
     inkscape:label="Image"
     id="g1"
     transform="translate(-37.937443,-29.466192)">
    <path
       id="path1"
       style="fill:url(#radialGradient2);stroke:#000000;stroke-width:0.5;stroke-dasharray:none;stroke-opacity:1"
       d="m 308.3963,30.735333 c -2.60363,-0.07353 -4.81887,0.02823 -6.57481,0.302522 -1.45655,0.227507 -3.41212,0.608424 -4.34554,0.846663 -0.93343,0.238241 -2.58039,0.745884 -3.65974,1.127967 -1.07935,0.382096 -3.09877,1.245085 -4.48791,1.917145 -1.38915,0.672044 -2.74887,1.467735 -3.02116,1.768601 -0.27227,0.300878 -0.51202,1.007597 -0.53318,1.570809 -0.0352,0.935351 -0.25119,1.194113 -2.49208,2.983494 -1.3493,1.077474 -3.1618,2.741629 -4.02796,3.698759 -0.86615,0.957129 -2.31447,2.821008 -3.21895,4.141587 -0.90448,1.320568 -2.1508,3.407838 -2.76927,4.638487 -0.61848,1.230662 -1.50535,3.373293 -1.97053,4.761016 -0.46516,1.387725 -1.04448,3.577989 -1.28744,4.867107 -0.24295,1.289118 -0.44147,2.756481 -0.44147,3.261392 0,0.692917 -0.18944,1.041466 -0.77137,1.42022 -0.42402,0.275995 -0.92439,0.700297 -1.11223,0.943173 -0.18783,0.242874 -0.34553,1.20149 -0.35044,2.13068 -0.005,0.929202 0.1199,2.759018 0.27722,4.065615 0.15732,1.306584 0.47985,3.251112 0.71661,4.321591 0.23673,1.070482 0.88026,3.152494 1.43048,4.626187 0.55023,1.473679 1.38093,3.436138 1.84528,4.361289 0.46435,0.925147 1.51032,2.691084 2.32438,3.924619 0.81405,1.233537 2.29648,3.189109 3.29493,4.345545 0.99845,1.156445 2.49181,2.675826 3.31819,3.376369 0.82639,0.70055 2.25958,1.84001 3.18473,2.53176 0.92515,0.69176 2.21515,1.60038 2.86715,2.01983 0.65202,0.41944 1.52608,0.76314 1.94246,0.76314 0.41639,0 1.15374,-0.1432 1.63788,-0.31825 0.77067,-0.27868 1.20945,-0.19552 3.52422,0.67074 1.4542,0.54421 3.46376,1.19392 4.46602,1.4435 1.00225,0.24957 2.57921,0.56263 3.50436,0.69608 0.92515,0.13347 3.32188,0.25764 5.32636,0.27583 2.05827,0.0187 4.74328,-0.14739 6.16824,-0.38123 1.38773,-0.22773 3.34263,-0.65108 4.34487,-0.94111 1.00225,-0.29006 2.81054,-0.92317 4.0177,-1.40723 2.00733,-0.80491 2.24569,-0.8442 2.79528,-0.45926 0.33052,0.2315 0.89282,0.42093 1.24911,0.42093 0.35631,0 1.24644,-0.30344 1.97806,-0.67418 0.73163,-0.37075 2.46182,-1.55391 3.84523,-2.62896 1.38339,-1.07505 3.53549,-3.010613 4.78224,-4.301738 1.24672,-1.291109 3.06501,-3.540995 4.04096,-4.999202 0.97597,-1.458194 2.30974,-3.796288 2.96366,-5.195626 0.6539,-1.399337 1.63068,-3.927508 2.17037,-5.618634 0.53969,-1.691114 1.06624,-3.642788 1.17041,-4.33665 0.10421,-0.693862 0.28569,-2.648747 0.40313,-4.344871 0.11778,-1.701588 0.10132,-3.492614 -0.0362,-3.995105 -0.1573,-0.574101 -0.55096,-1.066117 -1.06498,-1.331948 -0.6146,-0.317799 -0.85479,-0.680383 -0.97536,-1.472229 -0.088,-0.577841 -0.35325,-2.12325 -0.58999,-3.433873 -0.23674,-1.310637 -0.74554,-3.320481 -1.13003,-4.466704 -0.38446,-1.146221 -1.1362,-3.030517 -1.67072,-4.187446 -0.53453,-1.156915 -1.79322,-3.337586 -2.79733,-4.845874 -1.00413,-1.508299 -2.81968,-3.787328 -4.03414,-5.064238 -1.21444,-1.276884 -3.02273,-2.952422 -4.01905,-3.723385 -1.54669,-1.196817 -1.83415,-1.558766 -1.96438,-2.474956 -0.0839,-0.590183 -0.38374,-1.329709 -0.66665,-1.643352 -0.28293,-0.313644 -1.62536,-1.128691 -2.98286,-1.811055 -1.35751,-0.682364 -3.56525,-1.607527 -4.90612,-2.056067 -1.34085,-0.448554 -3.63533,-1.081823 -5.09912,-1.407235 -1.7606,-0.391379 -3.99086,-0.628921 -6.58849,-0.702239 z m 0.7303,5.473524 c 1.13936,0.0027 3.27018,0.256248 4.735,0.563988 1.46484,0.307714 3.48293,0.828252 4.48518,1.156707 1.00226,0.328457 2.95229,1.161228 4.33323,1.850753 2.32985,1.163324 2.62047,1.241006 4.03072,1.075257 1.46325,-0.171974 1.57493,-0.136669 2.99856,0.961648 0.81323,0.627403 2.53344,2.239528 3.82264,3.581717 1.28918,1.342188 3.06076,3.512657 3.93762,4.823293 0.87687,1.310622 2.1588,3.580912 2.84866,5.045736 0.68988,1.464824 1.5778,3.786488 1.97258,5.158675 0.39479,1.3722 0.86113,3.522782 1.03694,4.779493 0.31965,2.284933 0.31991,2.285101 -0.55577,3.160767 -0.75929,0.75931 -0.87615,1.073938 -0.88088,2.368882 -0.002,0.821366 -0.18437,2.83837 -0.40315,4.481761 -0.23755,1.784475 -0.82858,4.262127 -1.46676,6.151809 -0.58773,1.740262 -1.19486,3.198378 -1.34905,3.240173 -0.1542,0.04182 -2.42516,-1.00796 -5.04641,-2.332604 -2.62128,-1.324634 -5.6004,-2.89297 -6.62066,-3.485197 -1.02029,-0.59224 -2.26649,-1.545032 -2.76929,-2.117682 -0.50279,-0.57265 -1.26706,-1.787324 -1.69811,-2.698775 -0.53169,-1.124262 -0.84492,-2.347546 -0.97534,-3.80416 -0.10565,-1.180883 -0.44081,-2.903637 -0.74399,-3.828786 -0.30318,-0.925162 -0.87875,-2.249951 -1.27923,-2.943812 -0.40048,-0.693863 -1.42937,-1.994827 -2.28605,-2.890419 -1.02425,-1.070764 -2.23113,-1.960075 -3.52559,-2.598161 -1.08267,-0.53368 -2.7889,-1.139684 -3.79114,-1.346306 -1.79494,-0.37003 -1.82172,-0.388738 -1.78026,-1.262798 0.0232,-0.488054 0.37872,-1.328826 0.78985,-1.867867 0.41115,-0.539027 1.05649,-1.181812 1.43393,-1.429116 0.37743,-0.247303 1.22023,-0.508342 1.87332,-0.579734 0.9237,-0.100987 1.99713,0.159847 4.8322,1.173838 2.0045,0.716933 4.42722,1.551349 5.38385,1.854156 0.95664,0.302822 2.12847,0.877349 2.60364,1.277182 0.47518,0.399834 1.07183,1.12227 1.32646,1.605027 0.33116,0.627833 0.49599,1.835177 0.57768,4.241515 0.1107,3.261146 0.0915,3.394386 -0.60917,4.345557 -0.39759,0.539676 -0.97702,1.36011 -1.28745,1.822683 -0.3104,0.462574 -0.64375,1.262874 -0.74124,1.778869 -0.0975,0.516007 -0.0207,1.462182 0.17043,2.102626 0.20272,0.679411 0.80078,1.596781 1.43596,2.20255 0.6423,0.612567 1.49825,1.115289 2.08757,1.225845 0.54936,0.103052 1.43793,0.115999 1.97531,0.02874 0.53737,-0.08727 1.42991,-0.437858 1.98285,-0.779597 0.64381,-0.397891 1.20957,-1.083338 1.57354,-1.906178 0.3126,-0.706692 0.54903,-1.772862 0.52567,-2.368868 -0.0233,-0.596008 -0.31908,-1.575834 -0.65707,-2.177227 -0.33801,-0.601407 -0.90386,-1.283306 -1.25803,-1.51537 -0.35416,-0.232051 -0.84182,-0.723535 -1.08348,-1.092374 -0.28565,-0.435967 -0.48763,-1.587071 -0.57767,-3.290134 -0.0761,-1.44078 -0.2637,-3.260783 -0.41614,-4.044395 -0.15245,-0.78361 -0.5373,-1.918749 -0.85557,-2.522875 -0.31827,-0.604112 -0.97629,-1.516715 -1.46197,-2.02801 -0.48569,-0.511308 -1.2681,-1.168813 -1.73849,-1.460615 -0.47041,-0.291802 -3.05609,-1.304642 -5.74662,-2.251141 -2.69054,-0.946512 -5.51933,-2.055601 -6.28596,-2.464691 -0.76663,-0.409091 -2.1009,-1.437996 -2.96503,-2.28606 -1.01857,-0.999622 -1.93595,-2.281554 -2.60774,-3.644678 -0.58406,-1.185114 -1.11126,-2.744594 -1.20873,-3.57418 -0.17294,-1.471815 -0.17294,-1.471829 1.89865,-1.467452 z m -5.89925,0.08961 c 0.49909,-0.009 0.52918,0.240078 0.64886,1.23817 0.0878,0.731927 0.24609,3.538991 0.35249,6.237364 0.10642,2.698361 0.16852,5.536886 0.13757,6.307862 -0.031,0.770962 -0.24229,2.055561 -0.46952,2.854826 -0.22724,0.799264 -0.82353,1.991202 -1.32509,2.648799 -0.50157,0.657609 -1.93397,2.027402 -3.18337,3.043737 -1.2494,1.016337 -2.67497,2.284325 -3.16762,2.817863 -0.49265,0.53355 -1.32669,1.860098 -1.85348,2.947916 -0.59792,1.234662 -1.06709,2.749981 -1.24911,4.033454 -0.16038,1.130789 -0.21593,2.701169 -0.12326,3.489299 0.0927,0.78813 0.42411,2.232653 0.73648,3.210056 0.35759,1.118995 0.46976,1.875146 0.30252,2.042395 -0.14608,0.146084 -0.72088,0.339551 -1.27718,0.429831 -0.55629,0.09024 -1.4562,0.08079 -1.99996,-0.02124 -0.54375,-0.102033 -1.37593,-0.511153 -1.84869,-0.90894 -0.47275,-0.397801 -1.05182,-1.180792 -1.28744,-1.740559 -0.23562,-0.559768 -0.87233,-3.288735 -1.41475,-6.064196 -0.66655,-3.41062 -0.92917,-5.405382 -0.81039,-6.154542 0.0967,-0.609654 0.4314,-1.522231 0.74399,-2.028024 0.3129,-0.506258 1.63776,-1.624241 2.94723,-2.486595 1.30827,-0.861555 2.73929,-1.692098 3.18063,-1.845949 0.54339,-0.189416 1.14938,-0.1835 1.87675,0.01852 0.59077,0.16404 1.44416,0.299091 1.8966,0.29979 0.45245,6.99e-4 1.35309,-0.254968 2.00132,-0.568779 0.65385,-0.316505 1.52229,-1.066945 1.95068,-1.685106 0.61638,-0.889428 0.77274,-1.428715 0.77274,-2.672078 0,-1.266553 -0.15165,-1.772266 -0.81106,-2.705623 -0.44607,-0.631355 -1.29891,-1.399959 -1.89455,-1.707687 -0.61423,-0.31732 -1.59943,-0.551638 -2.27648,-0.541396 -0.65658,0.01043 -1.55674,0.207167 -2.00063,0.438039 -0.44389,0.230872 -1.07628,0.715743 -1.40518,1.07733 -0.32889,0.361576 -0.80198,1.0609 -1.0513,1.554365 -0.24932,0.493468 -0.4538,1.14977 -0.4538,1.458559 0,0.308788 -0.15328,0.89835 -0.34084,1.310027 -0.2027,0.444877 -1.49191,1.5213 -3.17858,2.652917 -1.56082,1.047202 -3.17978,2.309869 -3.59745,2.806236 -0.41766,0.496366 -1.02571,1.422033 -1.3511,2.056766 -0.37065,0.723018 -0.63894,1.886797 -0.71867,3.11628 -0.0985,1.519112 0.11044,3.166087 0.92606,7.289355 0.99972,5.053946 1.03891,5.449974 0.75632,7.739734 -0.22491,1.822244 -0.54877,2.910668 -1.32098,4.444112 -0.58217,1.156009 -1.61947,2.618786 -2.40858,3.395538 -0.76245,0.750504 -1.61956,1.489008 -1.90412,1.641305 -0.45558,0.24382 -0.6546,-0.01489 -1.66801,-2.164227 -0.63303,-1.342591 -1.29283,-2.819338 -1.46607,-3.281915 -0.17326,-0.462572 -0.62587,-2.039546 -1.00546,-3.504367 -0.41528,-1.602544 -0.7558,-3.891722 -0.85556,-5.747305 -0.0927,-1.723235 -0.3358,-3.42042 -0.55098,-3.846587 -0.2118,-0.41946 -0.63366,-0.895124 -0.93701,-1.057469 -0.46745,-0.25019 -0.52754,-0.497635 -0.39697,-1.620772 0.0847,-0.728832 0.28177,-1.955869 0.43804,-2.726844 0.15627,-0.770962 0.34854,-1.780346 0.42779,-2.242919 0.0792,-0.462575 0.62453,-2.119651 1.21146,-3.682329 0.58693,-1.562678 1.4755,-3.580771 1.97463,-4.485178 0.49912,-0.904396 1.51604,-2.527692 2.26004,-3.607027 0.74401,-1.07935 2.1446,-2.836741 3.11218,-3.90546 0.96756,-1.068721 2.6833,-2.676959 3.81237,-3.574181 1.12907,-0.897234 2.28913,-1.631725 2.57831,-1.631725 0.28919,0 0.60352,0.126493 0.69881,0.280628 0.0953,0.154186 0.39611,0.27993 0.66803,0.27993 0.27193,0 1.62149,-0.548427 2.99924,-1.218996 1.37777,-0.67057 3.26147,-1.483779 4.1854,-1.806939 0.92392,-0.323148 2.68903,-0.83294 3.92257,-1.133442 1.23353,-0.300503 2.76694,-0.622912 3.40785,-0.715937 0.29132,-0.04222 0.50988,-0.07367 0.67624,-0.07664 z m -7.30851,13.362459 c 0.84352,0 1.2131,0.168274 1.68373,0.766573 0.44229,0.562292 0.55811,0.991023 0.43462,1.608448 -0.0926,0.462948 -0.3247,0.998208 -0.51607,1.18958 -0.19136,0.191358 -0.75144,0.428446 -1.24432,0.527011 -0.75236,0.150484 -1.03256,0.04273 -1.74808,-0.672809 -0.46875,-0.468738 -0.85282,-1.097502 -0.85282,-1.396956 0,-0.299441 0.26151,-0.876376 0.5811,-1.282643 0.44817,-0.569778 0.82825,-0.739204 1.66184,-0.739204 z m 11.35428,10.237273 c 2.67905,0.0039 3.26176,0.0914 4.43864,0.672124 0.74508,0.36767 2.0348,1.290504 2.86646,2.050601 0.98297,0.898376 1.83378,2.034666 2.43047,3.247706 0.86047,1.749273 0.91785,2.0508 0.91785,4.814386 0,2.698349 -0.0691,3.084003 -0.8145,4.555003 -0.44788,0.883912 -1.33159,2.147241 -1.96368,2.806909 -0.63208,0.659683 -1.73666,1.543324 -2.45511,1.964363 -0.71843,0.421039 -2.10569,0.954448 -3.08275,1.184777 -0.97704,0.230342 -2.15542,0.409866 -2.61801,0.39903 -0.46257,-0.01043 -1.47128,-0.175821 -2.24224,-0.366855 -0.77097,-0.191041 -1.90679,-0.609101 -2.52355,-0.928806 -0.61678,-0.319703 -1.71793,-1.107471 -2.4469,-1.750127 -0.88647,-0.7815 -1.67523,-1.877202 -2.38256,-3.308609 -0.99166,-2.006764 -1.05708,-2.298321 -1.04789,-4.67752 0.009,-2.253058 0.1098,-2.749956 0.90005,-4.436577 0.54954,-1.172956 1.42809,-2.423972 2.29769,-3.270972 0.77449,-0.75439 2.13591,-1.728882 3.02524,-2.165588 1.48009,-0.726798 1.87806,-0.793501 4.70079,-0.78985 z m -1.80694,4.901997 c -0.89436,0 -1.13515,0.116913 -1.29498,0.630383 -0.10798,0.346931 -1.06293,2.749308 -2.12177,5.337993 -1.05886,2.588684 -1.92536,4.827707 -1.92536,4.975939 0,0.148219 0.44818,0.269662 0.99587,0.269662 0.85441,0 1.03726,-0.119507 1.28882,-0.841175 0.29319,-0.841057 0.29334,-0.841187 3.06221,-0.841187 2.76887,0 2.76898,1.3e-4 3.2039,0.841187 0.36042,0.69697 0.60669,0.841175 1.43871,0.841175 0.68963,0 0.96094,-0.109655 0.86651,-0.350439 -0.0756,-0.19273 -0.89753,-2.242791 -1.82679,-4.555676 -0.92925,-2.312874 -1.89166,-4.678324 -2.1389,-5.256541 -0.41028,-0.959565 -0.54537,-1.051321 -1.54822,-1.051321 z m 7.97449,0 c -0.98122,0 -0.9808,1.5e-5 -0.9808,5.606996 0,5.606981 -3.7e-4,5.606981 0.9808,5.606981 0.98123,0 0.9815,0 0.9815,-5.606981 0,-5.606981 -2.7e-4,-5.606996 -0.9815,-5.606996 z m -8.01966,2.993774 c 0.12958,-0.103317 0.28568,0.194104 0.62831,1.071169 0.3012,0.770948 0.73171,1.799479 0.95618,2.28536 0.22447,0.485879 0.40793,0.958967 0.40793,1.051306 0,0.09231 -0.82043,0.16769 -1.82268,0.16769 -1.00225,0 -1.822,-0.104484 -1.822,-0.232025 0,-0.127659 0.29657,-0.979306 0.65913,-1.892493 0.36255,-0.913186 0.75247,-1.912639 0.86651,-2.22104 0.0432,-0.116912 0.0834,-0.195525 0.12662,-0.229967 z m 23.77631,0.370288 c 0.47411,0 1.14096,0.225669 1.48184,0.501701 0.44871,0.363349 0.6201,0.805362 0.6201,1.60091 0,0.795563 -0.17139,1.237578 -0.6201,1.600925 -0.34088,0.276033 -1.02513,0.501701 -1.52084,0.501701 -0.57964,0 -1.11925,-0.231572 -1.51126,-0.648844 -0.34726,-0.369639 -0.60917,-1.01187 -0.60917,-1.49279 0,-0.519944 0.24923,-1.078326 0.64886,-1.453767 0.37576,-0.353003 1.01138,-0.609836 1.51057,-0.609836 z m -9.86356,10.611657 c 0.21569,-0.01942 0.39839,0.110432 0.69129,0.31895 0.42958,0.30589 0.98455,1.065278 1.23337,1.687167 0.24883,0.621861 0.45242,1.511768 0.45242,1.977361 0,0.465604 -0.23854,1.314261 -0.53044,1.886329 -0.29579,0.579693 -1.94008,2.283069 -3.71449,3.847973 -1.75115,1.544346 -3.75657,3.272733 -4.45644,3.840427 -0.69988,0.567691 -1.80375,1.15114 -2.45306,1.297029 -0.71966,0.16171 -1.62228,0.166461 -2.31137,0.01165 -0.62174,-0.139701 -2.19975,-0.832435 -3.50711,-1.539322 -1.30737,-0.706875 -2.56803,-1.557061 -2.80144,-1.889075 -0.23341,-0.332016 -0.55055,-1.070778 -0.70498,-1.641993 -0.15443,-0.571215 -0.60772,-1.427625 -1.00751,-1.90276 -0.39978,-0.475119 -1.08861,-1.050761 -1.53041,-1.279226 -0.44183,-0.228478 -1.41453,-0.428758 -2.16149,-0.445577 -0.74695,-0.01682 -1.66359,0.127272 -2.03691,0.320313 -0.37334,0.193015 -0.97447,0.618936 -1.33604,0.946603 -0.36159,0.327651 -0.83468,0.93609 -1.05132,1.352467 -0.21663,0.416368 -0.39424,1.315895 -0.39424,1.998584 0,0.682688 0.18502,1.683021 0.41067,2.223085 0.22565,0.540048 0.79859,1.309237 1.27375,1.709057 0.47517,0.399819 1.3445,0.870642 1.93151,1.046515 0.86235,0.258374 1.36591,0.232816 2.62349,-0.132785 0.85605,-0.248843 1.88729,-0.452411 2.29152,-0.452411 0.40425,0 1.83609,0.54963 3.18132,1.221054 1.34523,0.671426 2.88735,1.39438 3.42702,1.607074 0.54821,0.216076 1.90869,0.37794 3.08344,0.366869 1.68176,-0.01592 2.38318,-0.163662 3.50436,-0.739886 0.77097,-0.396235 2.64691,-1.772966 4.16828,-3.059482 1.52137,-1.286503 3.64567,-3.051882 4.72132,-3.922563 1.07563,-0.870667 2.65249,-1.849443 3.50367,-2.175168 0.8512,-0.325736 2.40013,-0.732767 3.4421,-0.904835 1.41696,-0.234019 2.36981,-0.230445 3.77951,0.01515 1.03663,0.180522 2.37708,0.525574 2.97941,0.766586 0.60231,0.240998 1.09511,0.556467 1.09511,0.700878 0,0.144413 -0.64818,1.234224 -1.44076,2.422253 -0.7926,1.188025 -2.65643,3.359154 -4.1416,4.823977 -1.49803,1.477512 -3.84524,3.411711 -5.27229,4.344874 -1.41481,0.925143 -2.70559,1.972233 -2.86783,2.326403 -0.16225,0.3542 -0.295,0.94338 -0.295,1.30936 0,0.52385 -0.19369,0.70697 -0.911,0.86034 -0.50113,0.10721 -1.05222,0.3081 -1.22516,0.44694 -0.17295,0.13884 -1.24557,0.57096 -2.38324,0.96029 -1.13768,0.38933 -3.56466,0.96121 -5.39345,1.27035 -2.22269,0.37571 -4.31395,0.53864 -6.30786,0.49143 -1.64053,-0.0388 -3.36142,-0.11301 -3.82401,-0.16429 -0.46257,-0.0512 -1.81402,-0.28448 -3.00334,-0.5188 -1.18932,-0.23433 -3.01847,-0.7179 -4.06494,-1.07389 -1.04645,-0.356 -2.50228,-0.87989 -3.23468,-1.16493 -1.06387,-0.41403 -1.33127,-0.65093 -1.33127,-1.17726 0,-0.36234 -0.12934,-0.9009 -0.28746,-1.1964 -0.15814,-0.29549 -1.36166,-1.25186 -2.67412,-2.125216 -1.31248,-0.873313 -3.10677,-2.23223 -3.9876,-3.02045 -0.88082,-0.788222 -2.17906,-2.063188 -2.88494,-2.83292 -0.70588,-0.769732 -1.49436,-1.711117 -1.75219,-2.092357 -0.25781,-0.381242 -0.46842,-0.823075 -0.46815,-0.981496 2.7e-4,-0.158432 0.59911,-0.659409 1.33124,-1.113595 0.73214,-0.454184 3.1604,-2.019387 5.39618,-3.477672 2.23579,-1.458286 4.59346,-2.886224 5.23876,-3.173779 0.6453,-0.287556 1.76197,-0.633464 2.48181,-0.767945 0.71982,-0.134469 2.11311,-0.144452 3.09574,-0.02266 1.00356,0.124419 2.85453,0.680203 4.22373,1.268275 1.53831,0.660729 3.14458,1.124599 4.35376,1.257333 1.25726,0.138016 2.65445,0.08195 4.06424,-0.1629 1.1817,-0.2052 2.97904,-0.779262 3.99375,-1.276483 1.19488,-0.58552 2.52135,-1.578474 3.76515,-2.817876 1.20028,-1.196041 1.65073,-1.644478 2.01022,-1.676897 z m -22.87694,8.899172 c 0.25683,-0.0065 0.50096,0.02902 0.70565,0.106816 0.36415,0.138442 0.86469,0.540088 1.11154,0.892522 0.24685,0.35242 0.44832,0.934045 0.44832,1.292225 0,0.358183 -0.3094,0.961001 -0.68787,1.339471 -0.37847,0.37847 -0.97799,0.67914 -1.33193,0.668691 -0.35395,-0.01042 -0.91795,-0.151726 -1.25391,-0.314147 -0.33596,-0.162423 -0.76135,-0.658738 -0.94523,-1.102655 -0.2599,-0.627456 -0.25881,-0.989963 0.007,-1.629666 0.2048,-0.49445 0.67052,-0.93802 1.16629,-1.11085 0.25509,-0.08894 0.52411,-0.136164 0.78096,-0.142367 z"
       sodipodi:nodetypes="ssssssccsssssssssssssssssssssssssssssssssssssssssssssssssssssssssssssssscssssssssssssscssssssssssssssssscssssssssssssssscsssssssssssssssssssssssssssssssssscsssssssssssssssssssssssssssssccssssssssscssssssssssssssssscsssssssssssssssssssssssssssssssssssscssssssscssssssssssssssssscssssscssssssssssssssssssssssssssscsssssccsssssssscsss" />
    <text
       xml:space="preserve"
       style="font-weight:900;font-size:80px;font-family:Arial;-inkscape-font-specification:'Arial Heavy';text-align:center;text-anchor:middle;fill:url(#linearGradient6);stroke:#000000;stroke-width:0.7;stroke-linejoin:round;stroke-dasharray:none"
       x="151.33246"
       y="97.610725"
       id="text1"><tspan
         sodipodi:role="line"
         id="tspan1"
         x="151.33246"
         y="97.610725"
         style="font-style:normal;font-variant:normal;font-weight:normal;font-stretch:normal;font-size:80px;font-family:'Arial Rounded MT Bold';-inkscape-font-specification:'Arial Rounded MT Bold, ';fill:url(#linearGradient6);stroke-width:0.7;stroke-dasharray:none">FREE</tspan></text>
    <text
       xml:space="preserve"
       style="font-weight:900;font-size:80px;font-family:Arial;-inkscape-font-specification:'Arial Heavy';text-align:center;text-anchor:middle;fill:url(#linearGradient4);stroke:#000000;stroke-width:0.7;stroke-linejoin:round;stroke-dasharray:none"
       x="490.65869"
       y="98.099007"
       id="text2"><tspan
         sodipodi:role="line"
         id="tspan2"
         x="490.65869"
         y="98.099007"
         style="font-style:normal;font-variant:normal;font-weight:normal;font-stretch:normal;font-size:80px;font-family:'Arial Rounded MT Bold';-inkscape-font-specification:'Arial Rounded MT Bold, ';fill:url(#linearGradient4);stroke-width:0.7;stroke-dasharray:none">TOOLS</tspan></text>
  </g>
</svg>
